<svg viewBox="0 0 100 100" class="w-full h-full text-foreground transform transition-transform duration-300 scale-[0.85] translate-y-[-5%]" xmlns="http://www.w3.org/2000/svg"><defs><filter id="filter-r1-noise" filterUnits="userSpaceOnUse" x="0" y="0" width="100" height="100"><feTurbulence type="fractalNoise" baseFrequency="0.95" numOctaves="4" stitchTiles="stitch" result="noise"/><feColorMatrix in="noise" type="matrix" values="1 0 0 0 0 0 1 0 0 0 0 0 1 0 0 0 0 0 15 -7" result="crunchyNoise"/><feComponentTransfer in="crunchyNoise"><feFuncR type="linear" slope="0.12"/><feFuncG type="linear" slope="0.12"/><feFuncB type="linear" slope="0.12"/><feFuncA type="linear" slope="0.6"/></feComponentTransfer><feBlend mode="overlay" in="SourceGraphic"/></filter><filter id="filter-r1-halftone" filterUnits="userSpaceOnUse" x="0" y="0" width="100" height="100"><feTurbulence type="fractalNoise" baseFrequency="1" numOctaves="1" result="dots"/><feColorMatrix in="dots" type="matrix" values="0 0 0 0 0  0 0 0 0 0  0 0 0 0 0  0 0 0 20 -10" result="stippling"/><feComposite in="SourceGraphic" in2="stippling" operator="in"/><feBlend mode="multiply" in2="SourceGraphic" opacity="0.4"/></filter><filter id="filter-r1-glitch" filterUnits="userSpaceOnUse" x="-10%" y="-10%" width="120%" height="120%"><feColorMatrix type="matrix" values="1 0 0 0 0  0 0 0 0 0  0 0 0 0 0  0 0 0 1 0" in="SourceGraphic" result="red"/><feOffset in="red" dx="1" dy="0" result="redShift"/><feColorMatrix type="matrix" values="0 0 0 0 0  0 1 0 0 0  0 0 1 0 0  0 0 0 1 0" in="SourceGraphic" result="cyan"/><feOffset in="cyan" dx="-1" dy="0" result="cyanShift"/><feBlend in="redShift" in2="cyanShift" mode="screen" result="rgbSplit"/><feTurbulence type="fractalNoise" baseFrequency="0.01 0.2" numOctaves="1" result="glitchNoise"/><feColorMatrix type="matrix" values="0 0 0 0 0  0 0 0 0 0  0 0 0 0 0  0 0 0 10 -5" result="glitchMask"/><feComposite in="rgbSplit" in2="glitchMask" operator="arithmetic" k2="1" k3="0.2"/></filter><filter id="filter-r1-wobble" filterUnits="userSpaceOnUse" x="0" y="0" width="100" height="100"><feTurbulence type="turbulence" baseFrequency="0.06" numOctaves="3" result="edgeTurbulence"/><feDisplacementMap in2="edgeTurbulence" in="SourceGraphic" scale="1.5" xChannelSelector="R" yChannelSelector="G"/></filter><clipPath id="filter-r1-head-clip"><rect x="0" y="22" width="100" height="78"/></clipPath><clipPath id="filter-r1-head-shape"><path d="M20 40 C 20 10, 80 10, 80 40 C 80 70, 75 90, 50 90 C 25 90, 20 70, 20 40 Z"/></clipPath><mask id="filter-r1-astronaut-glass-mask" maskUnits="userSpaceOnUse"><rect x="0" y="0" width="100" height="100" fill="black"/><circle cx="50" cy="15" r="41" fill="white" transform="translate(0, 35) scale(1, 1)"/></mask></defs><g filter="url(#filter-r1-halftone)"><rect x="0" y="0" width="100" height="100" fill="currentColor" opacity="0.06" class="text-foreground"/><rect x="0" y="0" width="100" height="100" fill="none" stroke="currentColor" stroke-width="0.5" opacity="0.1"/><g filter="url(#filter-r1-wobble)"><g class="hair-back-set"><path d="M 15 20 L 8 45 Q 10 95, 12 95 L 88 95 Q 90 95, 92 45 L 85 20 Z" fill="#EA580C" stroke="currentColor" stroke-width="2" stroke-linejoin="round"/></g><g class="body-set" style="color: rgb(37, 99, 235);"><g transform="translate(50, 95)"><defs><pattern id="houndstooth" x="0" y="0" width="10" height="10" patternUnits="userSpaceOnUse"><rect width="10" height="10" fill="white"/><path d="M 0 0 L 5 0 L 5 5 L 0 5 Z M 5 5 L 10 5 L 10 10 L 5 10 Z" fill="#7C3AED"/><path d="M 0 5 L 2.5 5 L 5 2.5 L 5 0 Z M 5 10 L 7.5 10 L 10 7.5 L 10 5 Z" fill="#7C3AED"/></pattern></defs><path d="M-38 0 Q-40 15, -45 40 L 45 40 Q 40 15, 38 0 L 15 -6 Q 0 -2, -15 -6 Z" fill="url(#houndstooth)" stroke="currentColor" stroke-width="2"/><path d="M-15 -6 L 0 2 L 15 -6" fill="none" stroke="currentColor" stroke-width="2"/><path d="M-15 -6 Q 0 -2, 15 -6" fill="rgba(0,0,0,0.1)" stroke="none"/></g></g><g><g class="head-group"><g clip-path="url(#filter-r1-head-clip)"><path d="M20 40 C 20 10, 80 10, 80 40 C 80 70, 75 90, 50 90 C 25 90, 20 70, 20 40 Z" fill="#FFDFC4" stroke="currentColor" stroke-width="2"/></g><g transform="translate(0, 3)" style="color: currentcolor;"><g><g transform="translate(35, 45)"><circle r="4.5" fill="#A3E635"/><circle r="2.2" fill="#1e293b"/> <circle cx="2" cy="-2" r="1.8" fill="white"/><path d="M -11 -4 Q -6 -9, 3 -6" fill="none" stroke="black" stroke-width="2.5" stroke-linecap="round"/><path d="M -10 -3 L -12 -6 M -8 -5 L -10 -8" stroke="black" stroke-width="1" stroke-linecap="round"/></g><g transform="translate(65, 45)"><circle r="4.5" fill="#A3E635"/><circle r="2.2" fill="#1e293b"/> <circle cx="2" cy="-2" r="1.8" fill="white"/><path d="M 11 -4 Q 6 -9, -3 -6" fill="none" stroke="black" stroke-width="2.5" stroke-linecap="round"/><path d="M 10 -3 L 13 -6 M 8 -5 L 10 -8" stroke="black" stroke-width="1" stroke-linecap="round"/></g></g><g transform="translate(50, 58)"><path d="M-2 -4 Q 1 -4, 1 0 Q 1 4, -2 4" fill="none" stroke="currentColor" stroke-width="2.1" stroke-linecap="round"/><path d="M-1 2 Q 0 3, 1 2" fill="none" stroke="currentColor" opacity="0.3" stroke-width="1" stroke-linecap="round"/></g><g transform="translate(50, 78)"><path d="M-15 -3 Q 0 7, 15 -3" fill="none" stroke="currentColor" stroke-width="2" stroke-linecap="round"/><path d="M-12 -2 Q 0 5, 12 -2" fill="none" stroke="currentColor" opacity="0.15" stroke-width="1" stroke-linecap="round"/><path d="M-16 -4 L -14 -2 M 16 -4 L 14 -2" fill="none" stroke="currentColor" opacity="0.3" stroke-width="1" stroke-linecap="round"/></g></g><g><path d="M 15 20 C 30 10, 45 10, 50 15 C 55 10, 70 10, 85 20 L 80 32 Q 50 15, 20 32 Z" fill="#EA580C" stroke="currentColor" stroke-width="2"/></g></g><g transform="translate(0, 3)"/></g></g></g></svg>